<svg xmlns="http://www.w3.org/2000/svg" xmlns:xlink="http://www.w3.org/1999/xlink" width="23" height="23" viewBox="0 0 23 23">
  <defs>
    <clipPath id="clip-path">
      <rect id="Rectangle_399" data-name="Rectangle 399" width="23" height="23" transform="translate(22 177)" fill="#fff" stroke="#707070" stroke-width="1"/>
    </clipPath>
  </defs>
  <g id="Group_1" data-name="Group 1" transform="translate(-22 -177)" clip-path="url(#clip-path)">
    <g id="ios-home" transform="translate(19.348 174.351)">
      <g id="Group_61" data-name="Group 61">
        <g id="preventivi" transform="translate(3.26 4.777)">
          <circle id="Ellipse_2" data-name="Ellipse 2" cx="1.021" cy="1.021" r="1.021" transform="translate(5.765 17.031) rotate(-1.057)" fill="#fff"/>
          <circle id="Ellipse_3" data-name="Ellipse 3" cx="1.021" cy="1.021" r="1.021" transform="translate(15.309 19.029) rotate(-88.635)" fill="#fff"/>
          <path id="Path_98" data-name="Path 98" d="M19.726,5.623a.25.25,0,0,0-.221-.179L5.652,4.1a.426.426,0,0,1-.319-.2,4.331,4.331,0,0,0-.519-.791c-.327-.4-.944-.387-2.076-.4a.62.62,0,0,0-.693.6.608.608,0,0,0,.663.6A5.651,5.651,0,0,1,3.815,4c.2.06.362.387.421.672a.016.016,0,0,0,0,.013c.009.051.085.434.085.438l1.7,9a3.308,3.308,0,0,0,.617,1.518,1.7,1.7,0,0,0,1.4.689H18.105a.6.6,0,0,0,.612-.57.593.593,0,0,0-.6-.621H8.034a.494.494,0,0,1-.353-.119,1.909,1.909,0,0,1-.489-1.106L7.009,12.9a.023.023,0,0,1,.017-.026l11.811-2a.249.249,0,0,0,.208-.221l.68-4.925a.243.243,0,0,0,0-.111Z" fill="#fff"/>
        </g>
      </g>
    </g>
  </g>
</svg>
