<svg xmlns="http://www.w3.org/2000/svg" xmlns:xlink="http://www.w3.org/1999/xlink" width="23" height="23" viewBox="0 0 23 23">
  <defs>
    <clipPath id="clip-path">
      <rect id="Rectangle_399" data-name="Rectangle 399" width="23" height="23" transform="translate(22 177)" fill="#fff" stroke="#707070" stroke-width="1"/>
    </clipPath>
  </defs>
  <g id="Group_1" data-name="Group 1" transform="translate(-22 -177)" clip-path="url(#clip-path)">
    <g id="ios-home" transform="translate(19.348 174.351)">
      <g id="Group_62" data-name="Group 62">
        <g id="promo" transform="translate(3.509 5.039)">
          <path id="Path_99" data-name="Path 99" d="M10.636,17.515a4.473,4.473,0,0,1-1.782-.453.323.323,0,0,0-.453.316L8.546,19.5a.162.162,0,0,0,.262.116l.6-.457a.164.164,0,0,1,.237.042l.852,1.334a.163.163,0,0,0,.274,0l.852-1.334a.164.164,0,0,1,.237-.042l.6.457a.162.162,0,0,0,.262-.116l.145-2.119a.322.322,0,0,0-.453-.316,4.493,4.493,0,0,1-1.782.453Z" fill="#fff"/>
          <path id="Path_100" data-name="Path 100" d="M16.522,12.177l-1.994-2.04c0-6.564-3.872-9.472-3.872-9.472S6.747,3.573,6.747,10.137l-1.994,2.04a.345.345,0,0,0-.091.295l.764,4.645a.318.318,0,0,0,.49.224L8.7,15.455a3.171,3.171,0,0,0,1.957.831,3,3,0,0,0,1.915-.831l2.788,1.886a.319.319,0,0,0,.49-.224l.769-4.649A.369.369,0,0,0,16.522,12.177Zm-5.866-4.2a1.331,1.331,0,1,1,1.275-1.329A1.3,1.3,0,0,1,10.656,7.977Z" fill="#fff"/>
        </g>
      </g>
    </g>
  </g>
</svg>
