<svg xmlns="http://www.w3.org/2000/svg" width="22.34" height="26.067" viewBox="0 0 22.34 26.067">
  <g id="md-finger-print" transform="translate(-64 -32)">
    <path id="Path_94" data-name="Path 94" d="M64.82,91.546a.815.815,0,0,1-.71-1.222c1.036-1.746,4.183-5.824,11.061-5.824a13.009,13.009,0,0,1,7.762,2.351A13.168,13.168,0,0,1,86.2,90.278a.809.809,0,0,1-.215,1.129.828.828,0,0,1-1.14-.215,11,11,0,0,0-9.67-5.074c-6.028,0-8.751,3.514-9.641,5.021A.8.8,0,0,1,64.82,91.546Z" transform="translate(0 -49.445)" fill="#fff"/>
    <path id="Path_95" data-name="Path 95" d="M93.5,156.581a.811.811,0,0,1-.2-.023c-4.986-1.251-6.848-6.29-6.924-6.5l-.012-.047c-.041-.145-1.042-3.6.495-5.626a3.768,3.768,0,0,1,3.189-1.4,3.4,3.4,0,0,1,2.915,1.268,6.35,6.35,0,0,1,.96,2.391c.436,1.728.751,2.636,2.566,2.729a1.874,1.874,0,0,0,1.618-.832,4.866,4.866,0,0,0,.337-4.451,9.3,9.3,0,0,0-8.4-5.871,8.53,8.53,0,0,0-5.516,1.943,8.955,8.955,0,0,0-2.758,4.061c-.9,2.839.279,7.3.291,7.343a.807.807,0,0,1-.582.989.826.826,0,0,1-1.007-.576c-.052-.2-1.309-4.963-.273-8.245A10.341,10.341,0,0,1,96.657,139a11.352,11.352,0,0,1,3.317,4.5,6.432,6.432,0,0,1-.547,5.981,3.485,3.485,0,0,1-3.026,1.5c-3.107-.157-3.666-2.351-4.073-3.951-.419-1.641-.687-2.432-2.287-2.432a2.193,2.193,0,0,0-1.879.751,3.966,3.966,0,0,0-.506,2.56,8.356,8.356,0,0,0,.273,1.618c.128.326,1.792,4.451,5.778,5.452a.808.808,0,0,1,.593.983.826.826,0,0,1-.8.611Z" transform="translate(-14.87 -98.514)" fill="#fff"/>
    <path id="Path_96" data-name="Path 96" d="M137.261,206.69a.828.828,0,0,1-.6-.256,13.071,13.071,0,0,1-3.549-7.448v-.017a8.691,8.691,0,0,1,1.821-6.645A6.744,6.744,0,0,1,140.2,190.2a6.535,6.535,0,0,1,6,3.578,10.058,10.058,0,0,1,1.129,3.462.822.822,0,0,1-1.635.169,8.423,8.423,0,0,0-.96-2.892,4.908,4.908,0,0,0-4.538-2.694,5.161,5.161,0,0,0-4.038,1.577,7.148,7.148,0,0,0-1.426,5.365,11.474,11.474,0,0,0,3.124,6.563.8.8,0,0,1-.041,1.146A.825.825,0,0,1,137.261,206.69Z" transform="translate(-65.028 -148.995)" fill="#fff"/>
    <path id="Path_97" data-name="Path 97" d="M131.06,55.361a6.766,6.766,0,0,1-4.416-1.46,8.153,8.153,0,0,1-2.665-5.242.82.82,0,0,1,1.635-.128,6.6,6.6,0,0,0,2.083,4.125,5.643,5.643,0,0,0,4.335,1.024.818.818,0,0,1,.908.716.808.808,0,0,1-.721.9,9.96,9.96,0,0,1-1.158.07Zm1.379-21.581c-.681-.448-3.1-1.78-7.634-1.78-4.765,0-7.186,1.472-7.721,1.844a.636.636,0,0,0-.1.076.018.018,0,0,1-.012.006.808.808,0,0,0,.547,1.414.831.831,0,0,0,.477-.151l-.006.006c.023-.017,2.112-1.571,6.813-1.571s6.79,1.559,6.813,1.571l-.006-.006.012-.012a.815.815,0,1,0,.815-1.4Z" transform="translate(-49.634)" fill="#fff"/>
  </g>
</svg>
