<svg xmlns="http://www.w3.org/2000/svg" xmlns:xlink="http://www.w3.org/1999/xlink" width="23" height="23" viewBox="0 0 23 23">
  <defs>
    <clipPath id="clip-path">
      <rect id="Rectangle_399" data-name="Rectangle 399" width="23" height="23" transform="translate(22 177)" fill="#fff" stroke="#707070" stroke-width="1"/>
    </clipPath>
  </defs>
  <g id="Group_1" data-name="Group 1" transform="translate(-22 -177)" clip-path="url(#clip-path)">
    <g id="ios-home" transform="translate(19.348 174.351)">
      <g id="Group_60" data-name="Group 60">
        <path id="assistenza" d="M18.753,5.574,16.844,7.491a.176.176,0,0,1-.149.047l-1.973-.357a.173.173,0,0,1-.136-.136l-.353-1.973a.172.172,0,0,1,.047-.149l1.9-1.913a.337.337,0,0,0-.043-.514,2.428,2.428,0,0,0-1.352-.455.542.542,0,0,0-.085,0,4.1,4.1,0,0,0-2.551,1.263A4.109,4.109,0,0,0,11.2,7.75a.673.673,0,0,1-.115.838c-.323.315-8.49,8.006-8.49,8.006a1.8,1.8,0,0,0,0,2.589,1.9,1.9,0,0,0,1.331.544,1.636,1.636,0,0,0,1.258-.557s7.627-8.125,8-8.495a.658.658,0,0,1,.472-.217.8.8,0,0,1,.366.1,2.992,2.992,0,0,0,1.377.315,4.566,4.566,0,0,0,3.07-1.258,3.927,3.927,0,0,0,1.258-2.555,2.273,2.273,0,0,0-.455-1.454.346.346,0,0,0-.514-.034ZM4.358,18.252a.6.6,0,1,1,0-.846A.606.606,0,0,1,4.358,18.252Z" transform="translate(3.266 4.791)" fill="#fff"/>
      </g>
    </g>
  </g>
</svg>
