<svg xmlns="http://www.w3.org/2000/svg" xmlns:xlink="http://www.w3.org/1999/xlink" width="23" height="23" viewBox="0 0 23 23">
  <defs>
    <clipPath id="clip-path">
      <rect id="Rectangle_399" data-name="Rectangle 399" width="23" height="23" transform="translate(22 177)" fill="#fff" stroke="#707070" stroke-width="1"/>
    </clipPath>
  </defs>
  <g id="Group_1" data-name="Group 1" transform="translate(-22 -177)" clip-path="url(#clip-path)">
    <g id="ios-home" transform="translate(19.348 174.351)">
      <path id="Path_92" data-name="Path 92" d="M14.287,5.754a.217.217,0,0,0-.276,0l-8.622,6.9a.232.232,0,0,0-.083.171V25.535a.111.111,0,0,0,.111.111h5.969a.111.111,0,0,0,.111-.111V17.8a.111.111,0,0,1,.111-.111h5.085a.111.111,0,0,1,.111.111v7.738a.111.111,0,0,0,.111.111h5.969a.111.111,0,0,0,.111-.111V12.823a.223.223,0,0,0-.083-.171l-8.622-6.9Z" fill="#fff"/>
      <path id="Path_93" data-name="Path 93" d="M25.353,11.286,14.906,2.918a1.213,1.213,0,0,0-1.514,0l-4.549,3.7V4.283a.111.111,0,0,0-.111-.111H5.417a.111.111,0,0,0-.111.111v5.1l-2.36,1.94a.773.773,0,0,0-.066,1.155.769.769,0,0,0,.547.227.779.779,0,0,0,.486-.171L14.077,4.35a.1.1,0,0,1,.072-.022.134.134,0,0,1,.072.022L24.385,12.5a.779.779,0,0,0,.486.171.784.784,0,0,0,.779-.818.785.785,0,0,0-.3-.564Z" fill="#fff"/>
    </g>
  </g>
</svg>
